<?xml version="1.0" encoding="utf-8"?>
<!-- Generator: Adobe Illustrator 22.1.0, SVG Export Plug-In . SVG Version: 6.00 Build 0)  -->
<svg version="1.1" xmlns="http://www.w3.org/2000/svg" xmlns:xlink="http://www.w3.org/1999/xlink" x="0px" y="0px"
	 viewBox="0 0 800 410" style="enable-background:new 0 0 800 410;" xml:space="preserve">
<style type="text/css">
	.st0{fill:#0D1E30;}
	.st1{fill:none;stroke:#F8D8C6;stroke-width:6;stroke-linecap:round;stroke-linejoin:round;stroke-miterlimit:10;}
	.st2{fill:#2995D2;}
	.st3{fill:#F8D8C5;}
	.st4{fill:#F27276;}
	.st5{clip-path:url(#SVGID_2_);}
	.st6{fill:none;stroke:#F8D8C6;stroke-width:5.8567;stroke-linecap:round;stroke-linejoin:round;stroke-miterlimit:10;}
	.st7{clip-path:url(#SVGID_4_);}
</style>
<g id="Layer_2">
</g>
<g id="Layer_1">
	<g>
		<defs>
			<path id="SVGID_1_" d="M-620-35.1l-380,190l380,190l380-190L-620-35.1z"/>
		</defs>
		<clipPath id="SVGID_2_">
			<use xlink:href="#SVGID_1_"  style="overflow:visible;"/>
		</clipPath>
		<g class="st5">
			<g>
				<path class="st4" d="M108.9-32.9c0,6,0,8.9,0,14.9C40.2-17-26,4.3-94.8,2.1C-152.2,0.3-209-8.5-264.8-21.7
					c-57.9-13.7-116.1-29-175.8-31.4c-67.5-2.7-130.9,26-198.1,27.6c67.4-2.9,130.4-32.9,198.1-31.6c59.6,1.2,117.9,15.2,175.8,27.9
					C-208.9-16.9-152.1-9.4-94.8-8.7C-25.8-7.9,40.1-30.5,108.9-32.9z"/>
				<path class="st4" d="M108.9-10.5c0,6,0,8.9,0,14.9C40.2,5.4-26,26.7-94.8,24.4C-152.2,22.5-209,13.6-264.8,0.6
					c-57.9-13.5-116.1-29-175.8-31.4c-67.5-2.7-130.9,26-198.1,27.6C-571.3-6-508.3-36-440.6-34.7c59.6,1.2,117.8,15.5,175.8,27.9
					c55.9,11.9,112.7,19.7,169.9,20.4C-25.8,14.4,40.1-8.1,108.9-10.5z"/>
				<path class="st4" d="M108.9,11.8c0,6,0,8.9,0,14.9C40.2,27.7-26,49-94.8,46.7c-57.3-1.9-114.1-11-169.9-23.8
					C-322.7,9.8-380.8-6-440.6-8.4c-67.5-2.7-130.9,26-198.1,27.6c67.3-2.9,130.4-33,198.1-31.6c59.6,1.2,117.8,15.8,175.8,27.9
					C-208.8,27.2-152,35.1-94.8,35.9C-25.8,36.8,40.1,14.2,108.9,11.8z"/>
				<path class="st4" d="M108.9,34.1c0,6,0,8.9,0,14.9C40.2,50-26,71.4-94.8,69c-57.3-2-114.1-11.3-169.9-23.8
					c-58-12.9-116.1-28.9-175.8-31.4c-67.5-2.8-130.9,26-198.1,27.6c67.3-2.9,130.4-33,198.1-31.6c59.6,1.3,117.7,16,175.8,27.9
					c56,11.4,112.7,19.6,169.9,20.4C-25.8,59.2,40.1,36.5,108.9,34.1z"/>
				<path class="st4" d="M108.9,56.4c0,6,0,8.9,0,14.9c-68.6,1-134.8,22.5-203.7,20c-57.3-2-114-11.5-169.9-23.7
					c-58.1-12.7-116.1-28.9-175.8-31.3c-67.5-2.8-130.9,26-198.1,27.6c67.3-2.9,130.4-33,198.1-31.6c59.5,1.3,117.7,16.3,175.8,27.9
					c56,11.2,112.8,19.5,169.9,20.4C-25.8,81.6,40.1,58.8,108.9,56.4z"/>
				<path class="st4" d="M108.9,78.7c0,6,0,8.9,0,14.9c-68.6,1-134.8,22.5-203.7,20c-57.3-2.1-114-11.8-170-23.7
					c-58.1-12.4-116.1-28.8-175.8-31.3c-67.5-2.8-130.9,26-198.1,27.6c67.3-2.9,130.4-33,198.1-31.5C-381,56-322.9,71.1-264.8,82.5
					c56,10.9,112.8,19.5,169.9,20.4C-25.8,103.9,40.1,81.1,108.9,78.7z"/>
				<path class="st4" d="M108.9,101.1c0,6,0,8.9,0,14.9C40.2,117-26,138.5-94.8,136c-57.2-2.1-114-12-170-23.7
					c-58.2-12.2-116.1-28.8-175.8-31.3c-67.5-2.9-130.9,26-198.1,27.6c67.3-2.9,130.4-33.1,198.1-31.5
					c59.5,1.3,117.6,16.8,175.8,27.8c56,10.7,112.8,19.4,170,20.4C-25.8,126.3,40.1,103.5,108.9,101.1z"/>
				<path class="st4" d="M108.9,123.4c0,6,0,8.9,0,14.9c-68.6,1-134.8,22.6-203.7,20c-57.2-2.1-114-12.3-170-23.7
					c-58.2-11.9-116.1-28.8-175.8-31.3c-67.5-2.9-130.9,26-198.1,27.6c67.3-2.9,130.4-33.1,198.1-31.5c59.5,1.4,117.5,17,175.8,27.8
					c56.1,10.4,112.8,19.4,170,20.3C-25.8,148.7,40.1,125.8,108.9,123.4z"/>
				<path class="st4" d="M108.9,145.7c0,6,0,8.9,0,14.9c-68.6,1-134.8,22.7-203.7,20c-57.2-2.2-113.9-12.5-170-23.7
					c-58.2-11.6-116.1-28.7-175.8-31.3c-67.5-2.9-130.9,26-198.1,27.6c67.3-2.9,130.4-33.1,198.1-31.5
					c59.5,1.4,117.5,17.3,175.8,27.8c56.1,10.2,112.8,19.3,170,20.3C-25.8,171,40.1,148.1,108.9,145.7z"/>
				<path class="st4" d="M108.9,168c0,6,0,8.9,0,14.9c-68.6,1-134.8,22.7-203.7,20c-57.2-2.2-113.9-12.8-170-23.7
					c-58.3-11.4-116.1-28.7-175.8-31.3c-67.5-3-130.9,26-198.1,27.6c67.3-2.9,130.4-33.2,198.1-31.5c59.5,1.4,117.5,17.5,175.8,27.8
					c56.1,9.9,112.9,19.3,170,20.3C-25.8,193.4,40.1,170.4,108.9,168z"/>
				<path class="st4" d="M108.9,190.4c0,6,0,8.9,0,14.9c-68.6,1-134.8,22.7-203.7,20c-57.2-2.3-113.9-13-170-23.7
					c-58.3-11.1-116.1-28.7-175.7-31.3c-67.5-3-130.9,26-198.1,27.6c67.3-2.9,130.4-33.2,198.1-31.5c59.5,1.5,117.4,17.8,175.8,27.8
					c56.2,9.7,112.9,19.2,170,20.3C-25.8,215.8,40.1,192.8,108.9,190.4z"/>
				<path class="st4" d="M108.9,212.7c0,6,0,8.9,0,14.9c-68.6,1-134.8,22.8-203.7,20c-57.2-2.3-113.8-13.3-170-23.7
					c-58.4-10.9-116.1-28.6-175.7-31.3c-67.5-3-130.9,26-198.1,27.6c67.3-2.9,130.4-33.2,198.1-31.5c59.5,1.5,117.4,18.1,175.7,27.8
					c56.2,9.4,112.9,19.2,170,20.3C-25.8,238.1,40.1,215.1,108.9,212.7z"/>
				<path class="st4" d="M108.9,235c0,6,0,8.9,0,14.9c-68.6,1-134.8,22.8-203.7,20c-57.2-2.4-113.8-13.5-170-23.7
					c-58.4-10.6-116.1-28.6-175.7-31.3c-67.5-3.1-131,26-198.1,27.6c67.3-2.9,130.4-33.3,198.1-31.5c59.5,1.5,117.3,18.3,175.7,27.8
					c56.2,9.1,112.9,19.1,170,20.3C-25.8,260.5,40.1,237.4,108.9,235z"/>
				<path class="st4" d="M108.9,257.3c0,6,0,8.9,0,14.9c-68.6,1-134.8,22.9-203.7,20c-57.2-2.4-113.8-13.8-170-23.7
					c-58.5-10.3-116.1-28.6-175.7-31.3c-67.5-3.1-131,26-198.1,27.6c67.3-2.9,130.4-33.3,198.1-31.5c59.5,1.6,117.3,18.6,175.7,27.8
					c56.3,8.9,112.9,19.1,170,20.3C-25.8,282.9,40.1,259.7,108.9,257.3z"/>
				<path class="st4" d="M108.9,279.6c0,6,0,8.9,0,14.9c-68.6,1-134.8,22.9-203.7,20c-57.2-2.5-113.7-14-170-23.7
					c-58.5-10.1-116.1-28.5-175.7-31.3c-67.5-3.2-131,26-198.1,27.6c67.3-2.9,130.4-33.3,198.1-31.5c59.5,1.6,117.2,18.8,175.7,27.8
					c56.3,8.6,112.9,19,170,20.3C-25.8,305.2,40.1,282,108.9,279.6z"/>
				<path class="st4" d="M108.9,302c0,6,0,8.9,0,14.9c-68.6,1-134.8,22.9-203.7,20c-57.2-2.5-113.7-14-170-23.7
					c-58.5-10.1-116.1-28.5-175.7-31.3c-67.5-3.2-131,26-198.1,27.6c67.3-2.9,130.4-33.4,198.1-31.5c59.5,1.6,117.2,19.1,175.7,27.8
					c56.3,8.4,112.9,18.9,170,20.3C-25.8,327.6,40.2,304.4,108.9,302z"/>
				<path class="st4" d="M108.9,324.3c0,6,0,8.9,0,14.9c-68.6,1-134.8,22.8-203.7,20c-57.2-2.3-113.8-13.3-170-23.7
					c-58.4-10.8-116.1-28.6-175.7-31.3c-67.5-3.1-131,26-198.1,27.6c67.3-2.9,130.4-33.3,198.1-31.5c59.5,1.5,117.3,18.4,175.7,27.8
					c56.2,9.1,112.9,19.1,170,20.3C-25.8,349.8,40.1,326.7,108.9,324.3z"/>
				<path class="st4" d="M108.9,346.6c0,6,0,8.9,0,14.9c-68.6,1-134.8,22.6-203.7,20c-57.2-2.2-113.9-12.5-170-23.7
					c-58.2-11.6-116.1-28.7-175.8-31.3c-67.5-3-130.9,26-198.1,27.6c67.3-2.9,130.4-33.2,198.1-31.5c59.5,1.4,117.4,17.6,175.8,27.8
					c56.1,9.8,112.9,19.2,170,20.3C-25.8,372,40.1,349,108.9,346.6z"/>
				<path class="st4" d="M108.9,368.9c0,6,0,8.9,0,14.9c-68.6,1-134.8,22.5-203.7,20c-57.3-2-114-11.8-169.9-23.7
					c-58.1-12.4-116.1-28.8-175.8-31.3c-67.5-2.9-130.9,26-198.1,27.6c67.3-2.9,130.4-33.1,198.1-31.5
					c59.5,1.4,117.6,16.9,175.8,27.8c56.1,10.6,112.8,19.4,170,20.3C-25.8,394.2,40.1,371.3,108.9,368.9z"/>
				<path class="st4" d="M108.9,391.3c0,6,0,8.9,0,14.9c-68.6,1-134.8,22.4-203.7,20.1c-57.3-1.9-114.1-11.1-169.9-23.8
					c-58-13.2-116.1-28.9-175.8-31.4c-67.5-2.8-130.9,26-198.1,27.6c67.3-2.9,130.4-33,198.1-31.6c59.6,1.3,117.7,16.1,175.8,27.9
					c56,11.3,112.8,19.5,169.9,20.4C-25.8,416.4,40.1,393.7,108.9,391.3z"/>
				<path class="st4" d="M108.9,413.6c0,6,0,8.9,0,14.9c-68.6,1-134.8,22.2-203.7,20.1c-57.4-1.8-114.2-10.3-169.9-23.8
					c-57.8-14-116.1-29-175.8-31.4c-67.5-2.6-130.9,26.1-198.1,27.6c67.4-2.9,130.4-32.9,198.1-31.6c59.6,1.2,117.8,15.3,175.8,27.9
					c55.9,12.1,112.7,19.7,169.9,20.4C-25.8,438.6,40.1,416,108.9,413.6z"/>
			</g>
		</g>
	</g>
	<polyline class="st6" points="321.9,48.8 400,9.8 790.4,205 400,400.2 9.6,205 126.7,146.4 	"/>
	<g>
		<g>
			<path class="st2" d="M220.1,39.1v34.6c0,2.5-2,4.5-4.4,4.5h-17.6c-2.4,0-4.5-1.9-4.5-4.5V59.5h10.1v9.7c0,0.3,0.3,0.5,0.5,0.5
				h5.1c0.3,0,0.6-0.2,0.6-0.5V39.1H220.1 M220.1,35.2h-10.1c-2.2,0-3.9,1.7-3.9,3.9v17.3c-0.7-0.5-1.5-0.8-2.4-0.8h-10.1
				c-2.2,0-3.9,1.7-3.9,3.9v14.2c0,4.6,3.7,8.4,8.4,8.4h17.6c4.7,0,8.3-3.7,8.3-8.4V39.1C224,36.9,222.3,35.2,220.1,35.2L220.1,35.2
				z"/>
		</g>
		<g>
			<path class="st2" d="M256.7,39.1v8.4h-15.5v6.8h13.4v8.3h-13.4v7.1h15.5v8.4h-25.5v-39H256.7 M256.7,35.2h-25.5
				c-2.2,0-3.9,1.7-3.9,3.9v39c0,2.2,1.7,3.9,3.9,3.9h25.5c2.2,0,3.9-1.7,3.9-3.9v-8.4c0-2.1-1.6-3.8-3.7-3.9c1-0.7,1.6-1.9,1.6-3.2
				v-8.3c0-1.2-0.5-2.2-1.3-2.9c1.9-0.2,3.4-1.9,3.4-3.9v-8.4C260.7,36.9,258.9,35.2,256.7,35.2L256.7,35.2z"/>
		</g>
		<g>
			<path class="st2" d="M302.4,39.1v39h-9.5V55.6l-6.6,15.5h-3.9L275.7,56v22.1h-9.3v-39h10.2l7.9,18.2l7.2-18.2H302.4 M302.4,35.2
				h-10.6c-1.6,0-3,1-3.6,2.5l-3.8,9.5l-4.1-9.6c-0.6-1.4-2-2.4-3.6-2.4h-10.2c-2.2,0-3.9,1.7-3.9,3.9v39c0,2.2,1.7,3.9,3.9,3.9h9.3
				c2.2,0,3.9-1.7,3.9-3.9v-4.2c0.7,0.7,1.7,1.1,2.7,1.1h3.9c1,0,2-0.4,2.7-1.1v4.2c0,2.2,1.7,3.9,3.9,3.9h9.5
				c2.2,0,3.9-1.7,3.9-3.9v-39C306.3,36.9,304.5,35.2,302.4,35.2L302.4,35.2z"/>
		</g>
		<g>
			<path class="st2" d="M121.8,92.8L121.8,92.8 M121.8,92.8l-7.3,39h-8.9l-6-21.7l-6.2,21.7h-8.7l-7.4-39h9.8l3.4,24.5l5.3-24.5h8.3
				l5,23.8l3.7-23.8H121.8 M121.8,88.8L121.8,88.8h-9c-1.9,0-3.6,1.4-3.9,3.3l-0.4,2.6l-0.6-2.8c-0.4-1.8-2-3.1-3.8-3.1h-8.3
				c-1.8,0-3.4,1.3-3.8,3.1l-0.6,2.9L91,92.2c-0.3-1.9-1.9-3.4-3.9-3.4h-9.8c-1.2,0-2.3,0.5-3,1.4c-0.7,0.9-1,2.1-0.8,3.2l7.4,39
				c0.3,1.8,2,3.2,3.8,3.2h8.7c1.7,0,3.3-1.2,3.8-2.8l2.4-8.4l2.3,8.3c0.5,1.7,2,2.9,3.8,2.9h8.9c1.9,0,3.5-1.3,3.8-3.2l7.3-38.9
				c0.1-0.3,0.1-0.6,0.1-0.9C125.7,90.6,123.9,88.8,121.8,88.8L121.8,88.8z M121.8,96.7L121.8,96.7L121.8,96.7L121.8,96.7z"/>
		</g>
		<g>
			<path class="st2" d="M153.1,92.8c2.7,0,4.6,1.9,4.6,4.6v34.5h-10.1v-9.7h-8.9v9.7h-10.1V97.3c0-2.7,1.9-4.6,4.6-4.6H153.1
				 M138.8,113.6h8.9v-11.7c0-0.7-0.6-1.2-1.4-1.2H140c-0.7,0-1.2,0.5-1.2,1.2V113.6 M153.1,88.8h-19.8c-4.9,0-8.5,3.6-8.5,8.5v34.5
				c0,2.2,1.7,3.9,3.9,3.9h10.1c2.2,0,3.9-1.7,3.9-3.9V126h1v5.8c0,2.2,1.7,3.9,3.9,3.9h10.1c2.2,0,3.9-1.7,3.9-3.9V97.3
				C161.6,92.4,158,88.8,153.1,88.8L153.1,88.8z M142.7,104.6h1v5.1h-1V104.6L142.7,104.6z"/>
		</g>
		<g>
			<path class="st2" d="M178.4,92.8v30.6h12.4v8.4h-22.4v-39H178.4 M178.4,88.8h-10c-2.2,0-3.9,1.7-3.9,3.9v39
				c0,2.2,1.7,3.9,3.9,3.9h22.4c2.2,0,3.9-1.7,3.9-3.9v-8.4c0-2.2-1.7-3.9-3.9-3.9h-8.5V92.8C182.3,90.6,180.6,88.8,178.4,88.8
				L178.4,88.8z"/>
		</g>
		<g>
			<path class="st2" d="M230.8,92.8L230.8,92.8 M230.8,92.8l-11.3,16.9l11.7,22.1h-11l-7.6-14.9l-3.2,5.1v9.8h-10.1v-39h10.1V109
				l10.1-16.3H230.8 M230.8,88.8L230.8,88.8h-11.2c-1.3,0-2.6,0.7-3.3,1.8l-2.9,4.7v-2.6c0-2.2-1.7-3.9-3.9-3.9h-10.1
				c-2.2,0-3.9,1.7-3.9,3.9v39c0,2.2,1.7,3.9,3.9,3.9h10.1c2.2,0,3.9-1.7,3.9-3.9v-4.9l3.4,6.7c0.7,1.3,2,2.1,3.5,2.1h11
				c1.4,0,2.6-0.7,3.3-1.9c0.7-1.2,0.7-2.6,0.1-3.8l-10.6-20L234,95c0.5-0.6,0.7-1.4,0.7-2.3C234.7,90.6,233,88.8,230.8,88.8
				L230.8,88.8z M230.8,96.7L230.8,96.7L230.8,96.7L230.8,96.7z"/>
		</g>
		<g>
			<path class="st2" d="M263.6,92.8v8.4h-15.5v6.8h13.4v8.3h-13.4v7.1h15.5v8.4h-25.5v-39H263.6 M263.6,88.8h-25.5
				c-2.2,0-3.9,1.7-3.9,3.9v39c0,2.2,1.7,3.9,3.9,3.9h25.5c2.2,0,3.9-1.7,3.9-3.9v-8.4c0-2.1-1.6-3.8-3.7-3.9c1-0.7,1.6-1.9,1.6-3.2
				V108c0-1.2-0.5-2.2-1.3-2.9c1.9-0.2,3.4-1.9,3.4-3.9v-8.4C267.5,90.6,265.8,88.8,263.6,88.8L263.6,88.8z"/>
		</g>
		<g>
			<path class="st2" d="M297.9,92.8c2.4,0,4.4,1.9,4.4,4.4V115c0,2.4-2,4.4-4.4,4.4h-0.3l4.8,12.4h-9.8l-4.9-12.4h-4.3v12.4h-10.1
				v-39H297.9 M283.4,111.6h8.3c0.2,0,0.5-0.3,0.5-0.5v-9.3c0-0.3-0.3-0.6-0.5-0.6h-8.3V111.6 M297.9,88.8h-24.5
				c-2.2,0-3.9,1.7-3.9,3.9v39c0,2.2,1.7,3.9,3.9,3.9h10.1c2.2,0,3.9-1.7,3.9-3.9v-2.6l1.6,4.1c0.6,1.5,2,2.5,3.6,2.5h9.8
				c1.3,0,2.5-0.6,3.2-1.7c0.7-1.1,0.9-2.4,0.4-3.6l-3.4-8.6c2.1-1.5,3.5-4,3.5-6.7V97.1C306.2,92.6,302.5,88.8,297.9,88.8
				L297.9,88.8z M287.3,105h1v2.6h-1V105L287.3,105z"/>
		</g>
	</g>
	<g>
		<path class="st3" d="M310.8,189.3h4.4v2.1h-0.8v2.8c0,0.6-0.5,1.1-1.1,1.1h-4.9c-0.6,0-1.1-0.5-1.1-1.1v-7.5
			c0-0.6,0.5-1.1,1.1-1.1h6v2.1h-4.5c-0.1,0-0.1,0.1-0.1,0.2v5.2c0,0.1,0.1,0.1,0.1,0.1h2c0.1,0,0.2-0.1,0.2-0.1v-1.6h-1.3V189.3z"
			/>
		<path class="st3" d="M323.7,185.5c0.6,0,1.1,0.5,1.1,1.1v4.5c0,0.6-0.5,1.1-1.1,1.1h-0.1l1.2,3.1h-2.5l-1.2-3.1H320v3.1h-2.5v-9.8
			H323.7z M322.3,187.7c0-0.1-0.1-0.1-0.1-0.1H320v2.6h2.1c0.1,0,0.1-0.1,0.1-0.1V187.7z"/>
		<path class="st3" d="M334.5,195.2H332v-2.4h-2.2v2.4h-2.5v-8.6c0-0.7,0.5-1.1,1.1-1.1h5c0.7,0,1.1,0.5,1.1,1.1V195.2z M332,190.7
			v-2.9c0-0.2-0.1-0.3-0.3-0.3h-1.6c-0.2,0-0.3,0.1-0.3,0.3v2.9H332z"/>
		<path class="st3" d="M343.2,185.5c0.6,0,1.1,0.5,1.1,1.1v5c0,0.6-0.5,1.1-1.1,1.1h-3.5v2.5h-2.5v-9.8H343.2z M341.6,190.6
			c0.1,0,0.1-0.1,0.1-0.1v-2.8c0-0.1-0.1-0.1-0.1-0.1h-1.9v3.1H341.6z"/>
		<path class="st3" d="M354,195.2h-2.5v-3.9h-2.4v3.9h-2.5v-9.8h2.5v3.7h2.4v-3.7h2.5V195.2z"/>
		<path class="st3" d="M359.3,195.2h-2.5v-9.8h2.5V195.2z"/>
		<path class="st3" d="M369.1,191.6v2.5c0,0.6-0.5,1.1-1.1,1.1h-4.9c-0.6,0-1.1-0.5-1.1-1.1v-7.5c0-0.6,0.5-1.1,1.1-1.1h4.9
			c0.6,0,1.1,0.5,1.1,1.1v2.5h-2.5v-1.4c0-0.1-0.1-0.2-0.1-0.2h-1.8c-0.1,0-0.2,0.1-0.2,0.2v5.2c0,0.1,0.1,0.1,0.2,0.1h1.8
			c0.1,0,0.1-0.1,0.1-0.1v-1.4H369.1z"/>
		<path class="st3" d="M382.2,195.2h-2.5v-2.4h-2.2v2.4H375v-8.6c0-0.7,0.5-1.1,1.1-1.1h5c0.7,0,1.1,0.5,1.1,1.1V195.2z
			 M379.7,190.7v-2.9c0-0.2-0.1-0.3-0.3-0.3h-1.6c-0.2,0-0.3,0.1-0.3,0.3v2.9H379.7z"/>
		<path class="st3" d="M387.2,189.9v5.4h-2.3v-9.8h2.3l2.9,5.4v-5.4h2.3v9.8H390L387.2,189.9z"/>
		<path class="st3" d="M400.5,185.5c1.1,0,2,0.9,2,2v5.8c0,1.1-0.9,2-2,2h-5.2v-9.8H400.5z M399.9,188.3c0-0.4-0.3-0.7-0.7-0.7h-1.5
			v5.6h1.5c0.4,0,0.7-0.3,0.7-0.7V188.3z"/>
		<path class="st3" d="M418.8,185.5l-1.8,9.8h-2.2l-1.5-5.4l-1.5,5.4h-2.2l-1.9-9.8h2.5l0.9,6.1l1.3-6.1h2.1l1.2,6l0.9-6H418.8z"/>
		<path class="st3" d="M420.6,185.5h6.4v2.1h-3.9v1.7h3.4v2.1h-3.4v1.8h3.9v2.1h-6.4V185.5z"/>
		<path class="st3" d="M429.4,195.2v-9.8h6c0.8,0,1.3,0.5,1.3,1.2v2.2c0,0.7-0.4,1.3-1.3,1.5c0.9,0.2,1.4,0.8,1.4,1.5v2.1
			c0,0.8-0.5,1.2-1.3,1.2H429.4z M434.3,187.6c0-0.1,0-0.2-0.1-0.2h-2.3v2h2.3c0.1,0,0.1-0.1,0.1-0.2V187.6z M434.3,191.4
			c0-0.1,0-0.2-0.1-0.2h-2.3v2.2h2.3c0.1,0,0.1-0.1,0.1-0.1V191.4z"/>
		<path class="st3" d="M312.5,200.1c1.1,0,2,0.9,2,2v5.8c0,1.1-0.9,2-2,2h-5.2v-9.8H312.5z M312,202.9c0-0.4-0.3-0.7-0.7-0.7h-1.5
			v5.6h1.5c0.4,0,0.7-0.3,0.7-0.7V202.9z"/>
		<path class="st3" d="M317.2,200.1h6.4v2.1h-3.9v1.7h3.4v2.1h-3.4v1.8h3.9v2.1h-6.4V200.1z"/>
		<path class="st3" d="M325.8,207.8h3.7c0.1,0,0.2-0.1,0.2-0.1v-1.4c0-0.1-0.1-0.1-0.2-0.1h-2.5c-0.7,0-1.1-0.5-1.1-1.1v-3.7
			c0-0.7,0.5-1.1,1.1-1.1h5v2.1h-3.5c-0.1,0-0.1,0.1-0.1,0.2v1.4c0,0.1,0.1,0.1,0.1,0.1h2.5c0.7,0,1.1,0.5,1.1,1.1v3.7
			c0,0.7-0.5,1.1-1.1,1.1h-5.2V207.8z"/>
		<path class="st3" d="M337.1,209.9h-2.5v-9.8h2.5V209.9z"/>
		<path class="st3" d="M343.3,203.9h4.4v2.1h-0.8v2.8c0,0.6-0.5,1.1-1.1,1.1h-4.9c-0.6,0-1.1-0.5-1.1-1.1v-7.5
			c0-0.6,0.5-1.1,1.1-1.1h6v2.1h-4.5c-0.1,0-0.1,0.1-0.1,0.2v5.2c0,0.1,0.1,0.1,0.1,0.1h2c0.1,0,0.2-0.1,0.2-0.1V206h-1.3V203.9z"/>
		<path class="st3" d="M352.4,204.5v5.4h-2.3v-9.8h2.3l2.9,5.4v-5.4h2.3v9.8h-2.4L352.4,204.5z"/>
		<path class="st3" d="M360.4,200.1h6.4v2.1h-3.9v1.7h3.4v2.1h-3.4v1.8h3.9v2.1h-6.4V200.1z"/>
		<path class="st3" d="M375.3,200.1c0.6,0,1.1,0.5,1.1,1.1v4.5c0,0.6-0.5,1.1-1.1,1.1h-0.1l1.2,3.1H374l-1.2-3.1h-1.1v3.1h-2.5v-9.8
			H375.3z M373.9,202.4c0-0.1-0.1-0.1-0.1-0.1h-2.1v2.6h2.1c0.1,0,0.1-0.1,0.1-0.1V202.4z"/>
	</g>
	<g>
		<defs>
			<path id="SVGID_3_" d="M400,19.4L29.1,204.9L400,390.4l370.9-185.5L400,19.4z"/>
		</defs>
		<clipPath id="SVGID_4_">
			<use xlink:href="#SVGID_3_"  style="overflow:visible;"/>
		</clipPath>
		<g class="st7">
			<g>
				<path class="st4" d="M1111.4-0.2c0,5.8,0,8.7,0,14.5c-67,1.1-131.6,21.8-198.9,19.6c-56-1.8-111.4-10.1-165.7-23.2
					c-54.7-13.2-109.6-27.4-166-30.4c-68-3.6-131.5,25.1-199,26.7c67.7-3,130.8-32.9,199-30.7c56.3,1.9,111.3,14.9,166,27.1
					c54.5,12.1,109.9,19.3,165.7,19.9C980,24.2,1044.3,2.2,1111.4-0.2z"/>
				<path class="st4" d="M1111.4,21.6c0,5.8,0,8.7,0,14.5c-67,1.1-131.6,21.8-198.9,19.6c-55.9-1.8-111.3-10.3-165.8-23.2
					c-54.7-13-109.6-27.3-166-30.4c-68-3.7-131.5,25.1-199,26.7c67.7-3,130.8-33,199-30.7C637,0.1,692,13.4,746.8,25.3
					c54.5,11.9,109.9,19.2,165.8,19.9C980,46.1,1044.3,24,1111.4,21.6z"/>
				<path class="st4" d="M1111.4,43.4c0,5.8,0,8.7,0,14.5c-67,1.1-131.7,21.9-198.9,19.6C856.6,75.7,801.2,67,746.8,54.3
					C692,41.6,637.2,27.1,580.8,24c-68-3.7-131.5,25-199,26.7c67.7-3,130.8-33,199-30.6c56.3,2,111.2,15.4,166,27
					C801.3,58.7,856.7,66.2,912.5,67C980,67.9,1044.3,45.8,1111.4,43.4z"/>
				<path class="st4" d="M1111.4,65.2c0,5.8,0,8.7,0,14.5c-67,1.1-131.7,21.9-198.9,19.6c-55.9-1.9-111.3-10.8-165.8-23.2
					c-54.8-12.5-109.6-27.2-166-30.3c-68-3.8-131.5,25-199,26.7c67.7-3,130.8-33.1,199-30.6c56.2,2,111.2,15.6,166,27
					c54.6,11.4,110,19.1,165.8,19.9C980,89.7,1044.3,67.6,1111.4,65.2z"/>
				<path class="st4" d="M1111.4,87c0,5.8,0,8.7,0,14.5c-67,1.1-131.7,22-198.9,19.6c-55.9-2-111.3-11-165.8-23.2
					c-54.9-12.2-109.6-27.2-166-30.3c-68-3.8-131.5,25-199,26.7c67.7-3,130.8-33.1,199-30.6c56.2,2,111.1,15.8,166,27
					c54.6,11.1,110,19.1,165.8,19.9C980,111.6,1044.3,89.4,1111.4,87z"/>
				<path class="st4" d="M1111.4,108.8c0,5.8,0,8.7,0,14.5c-67,1.1-131.7,22-198.9,19.6c-55.9-2-111.2-11.3-165.8-23.2
					c-54.9-12-109.6-27.1-166-30.3c-68-3.9-131.5,25-199,26.7c67.7-3,130.8-33.1,199-30.6c56.2,2.1,111.1,16.1,166,27
					c54.6,10.9,110,19,165.8,19.9C980,133.4,1044.3,111.2,1111.4,108.8z"/>
				<path class="st4" d="M1111.4,130.6c0,5.8,0,8.7,0,14.5c-67,1.1-131.7,22.1-198.9,19.6c-55.9-2.1-111.2-11.5-165.8-23.2
					c-54.9-11.7-109.6-27.1-166-30.3c-68-3.9-131.5,25-199,26.7c67.7-3,130.8-33.2,199-30.6c56.2,2.1,111,16.3,166,27
					c54.7,10.7,110,19,165.8,19.9C980,155.2,1044.3,133,1111.4,130.6z"/>
				<path class="st4" d="M1111.4,152.4c0,5.8,0,8.7,0,14.5c-67,1.1-131.7,22.1-198.9,19.6c-55.9-2.1-111.2-11.8-165.8-23.2
					c-55-11.5-109.6-27-166-30.3c-68-4-131.5,25-199,26.7c67.6-3,130.8-33.2,199-30.6c56.2,2.2,111,16.5,166,27
					c54.7,10.4,110,18.9,165.8,19.9C980,177.1,1044.3,154.8,1111.4,152.4z"/>
				<path class="st4" d="M1111.4,174.1c0,5.8,0,8.7,0,14.5c-67,1.1-131.7,22.2-198.9,19.6c-55.8-2.2-111.2-12-165.8-23.2
					c-55-11.3-109.7-27-166-30.3c-68-4-131.5,25-199,26.7c67.6-3,130.8-33.3,199-30.6c56.2,2.2,110.9,16.8,166,27
					c54.7,10.2,110.1,18.9,165.8,19.9C980,198.9,1044.3,176.5,1111.4,174.1z"/>
				<path class="st4" d="M1111.4,195.9c0,5.8,0,8.7,0,14.5c-67,1.1-131.7,22.2-198.9,19.6c-55.8-2.2-111.1-12.2-165.8-23.2
					c-55.1-11-109.7-26.9-166-30.3c-68-4.1-131.5,25-199,26.6c67.6-3,130.8-33.3,199-30.6c56.2,2.2,110.9,17,166,27
					c54.7,9.9,110.1,18.8,165.8,19.9C980,220.8,1044.3,198.3,1111.4,195.9z"/>
				<path class="st4" d="M1111.4,217.7c0,5.8,0,8.7,0,14.5c-67,1.1-131.7,22.3-198.9,19.6c-55.8-2.3-111.1-12.5-165.8-23.2
					c-55.1-10.8-109.7-26.9-166-30.3c-67.9-4.1-131.5,25-199,26.6c67.6-3,130.8-33.4,199-30.6c56.2,2.3,110.9,17.2,166,27
					c54.8,9.7,110.1,18.8,165.8,19.9C980,242.6,1044.3,220.1,1111.4,217.7z"/>
				<path class="st4" d="M1111.4,239.5c0,5.8,0,8.7,0,14.5c-67,1.1-131.7,22.3-198.9,19.5c-55.8-2.3-111.1-12.7-165.8-23.2
					c-55.2-10.5-109.7-26.8-166-30.3c-67.9-4.2-131.5,25-199,26.6c67.6-3,130.8-33.4,199-30.6c56.2,2.3,110.8,17.5,166,27
					c54.8,9.4,110.1,18.7,165.8,19.9C979.9,264.4,1044.3,241.9,1111.4,239.5z"/>
				<path class="st4" d="M1111.4,261.3c0,5.8,0,8.7,0,14.5c-67,1.1-131.7,22.4-198.9,19.5c-55.8-2.4-111-13-165.8-23.2
					c-55.2-10.3-109.7-26.8-166-30.3c-67.9-4.2-131.5,25-199,26.6c67.6-3,130.8-33.4,199-30.6c56.2,2.4,110.8,17.7,166,27
					c54.8,9.2,110.1,18.6,165.8,19.9C979.9,286.3,1044.4,263.7,1111.4,261.3z"/>
				<path class="st4" d="M1111.4,283.1c0,5.8,0,8.7,0,14.5c-67,1.1-131.7,22.4-198.9,19.5c-55.8-2.4-111-13.2-165.8-23.2
					c-55.2-10-109.7-26.7-166-30.3c-67.9-4.3-131.5,25-199,26.6c67.6-3,130.8-33.5,199-30.6c56.1,2.4,110.7,18,166,27
					c54.9,8.9,110.1,18.6,165.8,19.9C979.9,308.1,1044.4,285.5,1111.4,283.1z"/>
				<path class="st4" d="M1111.4,304.9c0,5.8,0,8.7,0,14.5c-67,1.1-131.7,22.5-198.9,19.5c-55.8-2.4-111-13.4-165.8-23.1
					c-55.3-9.8-109.7-26.7-166-30.2c-67.9-4.3-131.5,25-199,26.6c67.6-3,130.8-33.5,199-30.6c56.1,2.4,110.7,18.2,166,26.9
					c54.9,8.7,110.1,18.5,165.8,19.8C979.9,330,1044.4,307.3,1111.4,304.9z"/>
				<path class="st4" d="M1111.4,326.7c0,5.8,0,8.7,0,14.5c-67,1.1-131.7,22.5-198.9,19.5c-55.8-2.5-110.9-13.7-165.8-23.1
					c-55.3-9.5-109.7-26.6-166-30.2c-67.9-4.4-131.5,25-199,26.6c67.6-3,130.8-33.6,199-30.6c56.1,2.5,110.6,18.4,166,26.9
					c54.9,8.4,110.2,18.5,165.8,19.8C979.9,351.8,1044.4,329.1,1111.4,326.7z"/>
				<path class="st4" d="M1111.4,348.5c0,5.8,0,8.7,0,14.5c-67,1.1-131.7,22.5-198.9,19.5c-55.8-2.5-110.9-13.7-165.8-23.1
					c-55.3-9.5-109.7-26.6-166-30.2c-67.9-4.4-131.5,25-199,26.6c67.6-3,130.8-33.6,199-30.6c56.1,2.5,110.6,18.7,166,26.9
					c55,8.2,110.2,18.4,165.8,19.8C979.9,373.6,1044.4,350.9,1111.4,348.5z"/>
				<path class="st4" d="M1111.4,370.3c0,5.8,0,8.7,0,14.5c-67,1.1-131.7,22.4-198.9,19.5c-55.8-2.3-111-13-165.8-23.2
					c-55.2-10.3-109.7-26.8-166-30.3c-67.9-4.2-131.5,25-199,26.6c67.6-3,130.8-33.5,199-30.6c56.1,2.4,110.7,18.1,166,27
					c54.9,8.8,110.1,18.6,165.8,19.8C979.9,395.3,1044.4,372.6,1111.4,370.3z"/>
				<path class="st4" d="M1111.4,392c0,5.8,0,8.7,0,14.5c-67,1.1-131.7,22.2-198.9,19.6c-55.8-2.2-111.1-12.3-165.8-23.2
					c-55.1-11-109.7-26.9-166-30.3c-67.9-4.1-131.5,25-199,26.6c67.6-3,130.8-33.4,199-30.6c56.2,2.3,110.8,17.3,166,27
					c54.8,9.6,110.1,18.7,165.8,19.9C980,416.9,1044.3,394.4,1111.4,392z"/>
				<path class="st4" d="M1111.4,413.8c0,5.8,0,8.7,0,14.5c-67,1.1-131.7,22.1-198.9,19.6c-55.9-2.1-111.2-11.5-165.8-23.2
					c-54.9-11.7-109.7-27.1-166-30.3c-68-3.9-131.5,25-199,26.7c67.6-3,130.8-33.2,199-30.6c56.2,2.2,111,16.6,166,27
					c54.7,10.3,110,18.9,165.8,19.9C980,438.6,1044.3,416.2,1111.4,413.8z"/>
			</g>
		</g>
	</g>
</g>
</svg>
