<svg xmlns="http://www.w3.org/2000/svg" viewBox="0 0 120 60"><defs><style>.cls-1{fill:#f27276;}</style></defs><title>Asset 2</title><g id="Layer_2" data-name="Layer 2"><g id="Layer_1-2" data-name="Layer 1"><path class="cls-1" d="M60,0,0,30,60,60l60-30ZM47.94,36.51A1.88,1.88,0,0,1,46,38.43H38.45a1.92,1.92,0,0,1-1.93-1.92V30.39h4.35v4.17a.25.25,0,0,0,.23.23h2.22a.26.26,0,0,0,.28-.23v-13h4.34ZM63.76,25.19h-6.7v2.95h5.8v3.6h-5.8v3.05h6.7v3.64h-11V21.57h11ZM79.38,38.43V28.71l-2.85,6.7h-1.7L72,28.89v9.54H68V21.57h4.4l3.39,7.87,3.13-7.87h4.6V38.43Z"/></g></g></svg>
