<svg xmlns="http://www.w3.org/2000/svg" viewBox="0 0 628.44 867.82"><defs><style>.cls-1,.cls-2,.cls-3{fill:none;stroke-linecap:round;stroke-linejoin:round;stroke-width:14px;}.cls-1{stroke:#f27176;}.cls-2{stroke:#f7d8c5;}.cls-3{stroke:#2b95d2;}</style></defs><title>Asset 1</title><g id="Layer_2" data-name="Layer 2"><g id="Layer_2-2" data-name="Layer 2"><path class="cls-1" d="M316.86,117.42c-15.46-3.18-84.34-31.47-156.1,6.29-71.15,37.45-93.4,139.52-98.18,182.53-4.94,44.32-9.52,167.83-7.56,207.7,1.13,22.93,23.13,145.31,25.18,153.58C83,678.85,157.08,806.07,204.75,839.44c23.21,16.25,84.74,44,151.13-12.05,29.17-24.61,92.8-75.64,125.88-133.44,4.16-7.26,35.77-120.16,44.06-152.31,37.57-145.74,39.62-169,40.28-187.57,1.13-31.68-7.46-46.59-9.76-63.22"/><path class="cls-2" d="M240.92,82.28c1.45-15.71,32.51-32.84,62.94-28.27,38.46,5.78,75.37,58.23,91.95,103.52,22.6,61.71,6.63,111.15,27.93,143.09,4.81,7.21,15.44,10.61,22.05,10.65"/><path class="cls-2" d="M290.14,86.7C303.35,77,322.27,88.5,336,102.25c19.16,19.16,26.52,45,28.61,78.46,2.81,44.82-8.74,69.66,5.87,97.09,6.49,12.19,14.22,18,22.91,20.43"/><path class="cls-2" d="M397.72,52.57c39.93,29,87.87,121.57,102,164.29,9.89,29.9,13.9,41.92,27,46.36,12.35,4.19,28.66,7.17,47.4-8.16"/><path class="cls-2" d="M191.7,86.7c-2.19-5.64-6.38-29.77.26-45.89,8.16-19.81,28.86-26.87,36.77-29.58,57-19.44,121.12,33.88,131.91,43.17C388.08,78.07,402.22,103,411.8,120c28.06,49.56,38.4,102.79,40.77,115.91,5.94,32.82,5.7,56.27,23.38,69.46,12.43,9.28,33.73,7.46,45.13-4.71"/><path class="cls-2" d="M351.86,12.45c94.47-1.1,129.76,83.21,159.07,133.89,28.65,49.53,65.91,82.49,89.53,73.54"/><path class="cls-2" d="M40.51,322.57C31,378,2.15,414,25.34,456.23"/><path class="cls-2" d="M56.86,239.87C43.35,275.21,16.36,302.2,7,357.93"/><path class="cls-2" d="M82.44,169.52c-14,25.19-59.14,48.35-68.31,102.84"/><path class="cls-2" d="M117.61,127.15c-29.28-21.46-87.67,62.64-90.24,68.31"/><path class="cls-2" d="M148.56,101.08c-4-2.94-27.38-29-49.37-21.24-29,10.19-51.06,46.86-53,49.91"/><path class="cls-2" d="M577.23,283.17c13.22,27.34,55.26,90,41.46,132.31"/><path class="cls-2" d="M586.59,382c3.22,35.83,12.72,52.54,6.64,76.73"/><path class="cls-2" d="M569.19,461c-1.41,16.71,2.46,30,5.54,46.29"/><path class="cls-1" d="M534.91,580.42A136,136,0,0,0,554.16,527"/><path class="cls-1" d="M34.06,503.93c-4.65,46.19,6.58,75.13,14.4,85"/><path class="cls-3" d="M167.17,447.51a11.43,11.43,0,1,1,19.56.32"/><path class="cls-3" d="M392.83,450.42a11.44,11.44,0,1,1,19.38-.38"/><path class="cls-1" d="M119.36,447c49.25-40.44,88.51-23.12,110.23-1.52"/><path class="cls-1" d="M344.89,447.62c47.42-49.33,107.44-3.56,113.36,2.21"/><path class="cls-1" d="M230.9,723.19c16.7,4.21,55.25,5.08,74.77,2.67"/><path class="cls-1" d="M177.1,688.92c29.05,13.57,154.17,15.73,186.29,7.66"/><path class="cls-1" d="M232.27,396.16C203.89,387.71,124,362.07,94.94,400.3"/><path class="cls-1" d="M339.41,398.52c105-30.1,131.8-9,142.06,10.07"/><path class="cls-1" d="M239.84,602.62c2.87,2.75,13.62,8.39,28.62,9.72,19,1.69,31-6.55,33.27-8.58"/></g></g></svg>
